<mxfile host="app.diagrams.net" modified="2021-04-16T03:25:59.802Z" agent="5.0 (Windows NT 10.0; Win64; x64) AppleWebKit/537.36 (KHTML, like Gecko) Chrome/89.0.4389.114 Safari/537.36" etag="OgYc6tqQ5EFa8R_N1kbN" version="14.5.10" type="github">
  <diagram id="NL9ZVOJ9nv3hWCkOm3ET" name="Page-1">
    <mxGraphModel dx="4228" dy="553" grid="1" gridSize="10" guides="1" tooltips="1" connect="1" arrows="1" fold="1" page="1" pageScale="1" pageWidth="827" pageHeight="1169" math="0" shadow="0">
      <root>
        <mxCell id="0" />
        <mxCell id="1" parent="0" />
        <mxCell id="SsDaJ1J6V8dg9qfCBFVi-1" value="leader" style="shape=umlLifeline;perimeter=lifelinePerimeter;whiteSpace=wrap;html=1;container=1;collapsible=0;recursiveResize=0;outlineConnect=0;fontSize=13;" vertex="1" parent="1">
          <mxGeometry x="290" y="100" width="100" height="740" as="geometry" />
        </mxCell>
        <mxCell id="SsDaJ1J6V8dg9qfCBFVi-3" value="" style="endArrow=classic;html=1;fontSize=13;" edge="1" parent="1">
          <mxGeometry width="50" height="50" relative="1" as="geometry">
            <mxPoint x="340" y="170" as="sourcePoint" />
            <mxPoint x="610" y="200" as="targetPoint" />
          </mxGeometry>
        </mxCell>
        <mxCell id="SsDaJ1J6V8dg9qfCBFVi-6" value="" style="endArrow=classic;html=1;fontSize=13;" edge="1" parent="1">
          <mxGeometry width="50" height="50" relative="1" as="geometry">
            <mxPoint x="610" y="210" as="sourcePoint" />
            <mxPoint x="340" y="230" as="targetPoint" />
          </mxGeometry>
        </mxCell>
        <mxCell id="SsDaJ1J6V8dg9qfCBFVi-7" value="follower" style="shape=umlLifeline;perimeter=lifelinePerimeter;whiteSpace=wrap;html=1;container=1;collapsible=0;recursiveResize=0;outlineConnect=0;fontSize=13;" vertex="1" parent="1">
          <mxGeometry x="560" y="100" width="100" height="740" as="geometry" />
        </mxCell>
        <mxCell id="SsDaJ1J6V8dg9qfCBFVi-8" value="" style="endArrow=classic;html=1;fontSize=13;" edge="1" parent="1">
          <mxGeometry width="50" height="50" relative="1" as="geometry">
            <mxPoint x="340" y="260" as="sourcePoint" />
            <mxPoint x="610" y="290" as="targetPoint" />
          </mxGeometry>
        </mxCell>
        <mxCell id="SsDaJ1J6V8dg9qfCBFVi-9" value="" style="endArrow=classic;html=1;fontSize=13;" edge="1" parent="1">
          <mxGeometry width="50" height="50" relative="1" as="geometry">
            <mxPoint x="610" y="300" as="sourcePoint" />
            <mxPoint x="340" y="320" as="targetPoint" />
          </mxGeometry>
        </mxCell>
        <mxCell id="SsDaJ1J6V8dg9qfCBFVi-10" value="" style="endArrow=classic;html=1;fontSize=13;" edge="1" parent="1">
          <mxGeometry width="50" height="50" relative="1" as="geometry">
            <mxPoint x="340" y="350" as="sourcePoint" />
            <mxPoint x="610" y="380" as="targetPoint" />
          </mxGeometry>
        </mxCell>
        <mxCell id="SsDaJ1J6V8dg9qfCBFVi-11" value="" style="endArrow=classic;html=1;fontSize=13;" edge="1" parent="1">
          <mxGeometry width="50" height="50" relative="1" as="geometry">
            <mxPoint x="610" y="390" as="sourcePoint" />
            <mxPoint x="340" y="410" as="targetPoint" />
          </mxGeometry>
        </mxCell>
        <mxCell id="SsDaJ1J6V8dg9qfCBFVi-27" value="heartbeat(AuthorizeCommitter)" style="text;html=1;align=center;verticalAlign=middle;resizable=0;points=[];autosize=1;strokeColor=none;fontSize=13;" vertex="1" parent="1">
          <mxGeometry x="375" y="250" width="190" height="20" as="geometry" />
        </mxCell>
        <mxCell id="SsDaJ1J6V8dg9qfCBFVi-32" value="heartbeat(RenewCommitterLease)" style="text;html=1;align=center;verticalAlign=middle;resizable=0;points=[];autosize=1;strokeColor=none;fontSize=13;" vertex="1" parent="1">
          <mxGeometry x="375" y="340" width="210" height="20" as="geometry" />
        </mxCell>
        <mxCell id="SsDaJ1J6V8dg9qfCBFVi-37" value="heartbeat(RenewCommitterLease)" style="text;html=1;align=center;verticalAlign=middle;resizable=0;points=[];autosize=1;strokeColor=none;fontSize=13;" vertex="1" parent="1">
          <mxGeometry x="375" y="440" width="210" height="20" as="geometry" />
        </mxCell>
        <mxCell id="SsDaJ1J6V8dg9qfCBFVi-41" value="&lt;font style=&quot;font-size: 13px;&quot;&gt;.&lt;br style=&quot;font-size: 13px;&quot;&gt;.&lt;br style=&quot;font-size: 13px;&quot;&gt;.&lt;/font&gt;" style="text;html=1;align=center;verticalAlign=middle;resizable=0;points=[];autosize=1;strokeColor=none;fontSize=13;" vertex="1" parent="1">
          <mxGeometry x="450" y="585" width="20" height="50" as="geometry" />
        </mxCell>
        <mxCell id="SsDaJ1J6V8dg9qfCBFVi-48" value="heartbeat" style="text;html=1;align=center;verticalAlign=middle;resizable=0;points=[];autosize=1;strokeColor=none;fontSize=13;" vertex="1" parent="1">
          <mxGeometry x="425" y="160" width="70" height="20" as="geometry" />
        </mxCell>
        <mxCell id="SsDaJ1J6V8dg9qfCBFVi-52" value="lle2&lt;span style=&quot;color: rgba(0, 0, 0, 0); font-family: monospace; font-size: 13px;&quot;&gt;%3CmxGraphModel%3E%3Croot%3E%3CmxCell%20id%3D%220%22%2F%3E%3CmxCell%20id%3D%221%22%20parent%3D%220%22%2F%3E%3CmxCell%20id%3D%222%22%20value%3D%22lle1%22%20style%3D%22text%3Bhtml%3D1%3Balign%3Dcenter%3BverticalAlign%3Dmiddle%3Bresizable%3D0%3Bpoints%3D%5B%5D%3Bautosize%3D1%3BstrokeColor%3Dnone%3B%22%20vertex%3D%221%22%20parent%3D%221%22%3E%3CmxGeometry%20x%3D%22305%22%20y%3D%22600%22%20width%3D%2230%22%20height%3D%2220%22%20as%3D%22geometry%22%2F%3E%3C%2FmxCell%3E%3C%2Froot%3E%3C%2FmxGraphModel%3E&lt;/span&gt;&lt;span style=&quot;color: rgba(0, 0, 0, 0); font-family: monospace; font-size: 13px;&quot;&gt;%3CmxGraphModel%3E%3Croot%3E%3CmxCell%20id%3D%220%22%2F%3E%3CmxCell%20id%3D%221%22%20parent%3D%220%22%2F%3E%3CmxCell%20id%3D%222%22%20value%3D%22lle1%22%20style%3D%22text%3Bhtml%3D1%3Balign%3Dcenter%3BverticalAlign%3Dmiddle%3Bresizable%3D0%3Bpoints%3D%5B%5D%3Bautosize%3D1%3BstrokeColor%3Dnone%3B%22%20vertex%3D%221%22%20parent%3D%221%22%3E%3CmxGeometry%20x%3D%22305%22%20y%3D%22600%22%20width%3D%2230%22%20height%3D%2220%22%20as%3D%22geometry%22%2F%3E%3C%2FmxCell%3E%3C%2Froot%3E%3C%2FmxGraphModel%3E&lt;/span&gt;" style="text;html=1;align=center;verticalAlign=middle;resizable=0;points=[];autosize=1;strokeColor=none;fontSize=13;" vertex="1" parent="1">
          <mxGeometry x="-2955" y="750" width="6550" height="20" as="geometry" />
        </mxCell>
        <mxCell id="SsDaJ1J6V8dg9qfCBFVi-53" value="lle3&lt;span style=&quot;color: rgba(0, 0, 0, 0); font-family: monospace; font-size: 13px;&quot;&gt;%3CmxGraphModel%3E%3Croot%3E%3CmxCell%20id%3D%220%22%2F%3E%3CmxCell%20id%3D%221%22%20parent%3D%220%22%2F%3E%3CmxCell%20id%3D%222%22%20value%3D%22lle1%22%20style%3D%22text%3Bhtml%3D1%3Balign%3Dcenter%3BverticalAlign%3Dmiddle%3Bresizable%3D0%3Bpoints%3D%5B%5D%3Bautosize%3D1%3BstrokeColor%3Dnone%3B%22%20vertex%3D%221%22%20parent%3D%221%22%3E%3CmxGeometry%20x%3D%22305%22%20y%3D%22600%22%20width%3D%2230%22%20height%3D%2220%22%20as%3D%22geometry%22%2F%3E%3C%2FmxCell%3E%3C%2Froot%3E%3C%2FmxGraphModel%3E&lt;/span&gt;&lt;span style=&quot;color: rgba(0, 0, 0, 0); font-family: monospace; font-size: 13px;&quot;&gt;%3CmxGraphModel%3E%3Croot%3E%3CmxCell%20id%3D%220%22%2F%3E%3CmxCell%20id%3D%221%22%20parent%3D%220%22%2F%3E%3CmxCell%20id%3D%222%22%20value%3D%22lle1%22%20style%3D%22text%3Bhtml%3D1%3Balign%3Dcenter%3BverticalAlign%3Dmiddle%3Bresizable%3D0%3Bpoints%3D%5B%5D%3Bautosize%3D1%3BstrokeColor%3Dnone%3B%22%20vertex%3D%221%22%20parent%3D%221%22%3E%3CmxGeometry%20x%3D%22305%22%20y%3D%22600%22%20width%3D%2230%22%20height%3D%2220%22%20as%3D%22geometry%22%2F%3E%3C%2FmxCell%3E%3C%2Froot%3E%3C%2FmxGraphModel%3E&lt;/span&gt;" style="text;html=1;align=center;verticalAlign=middle;resizable=0;points=[];autosize=1;strokeColor=none;fontSize=13;" vertex="1" parent="1">
          <mxGeometry x="-2955" y="830" width="6550" height="20" as="geometry" />
        </mxCell>
        <mxCell id="SsDaJ1J6V8dg9qfCBFVi-56" value="&lt;font style=&quot;font-size: 13px;&quot;&gt;.&lt;br style=&quot;font-size: 13px;&quot;&gt;.&lt;br style=&quot;font-size: 13px;&quot;&gt;.&lt;/font&gt;" style="text;html=1;align=center;verticalAlign=middle;resizable=0;points=[];autosize=1;strokeColor=none;fontSize=13;" vertex="1" parent="1">
          <mxGeometry x="310" y="585" width="20" height="50" as="geometry" />
        </mxCell>
        <mxCell id="SsDaJ1J6V8dg9qfCBFVi-124" value="" style="endArrow=classic;startArrow=classic;html=1;fontSize=14;strokeWidth=2;curved=1;dashed=1;" edge="1" parent="1">
          <mxGeometry width="50" height="50" relative="1" as="geometry">
            <mxPoint x="339.41" y="660" as="sourcePoint" />
            <mxPoint x="339.41" y="170" as="targetPoint" />
            <Array as="points">
              <mxPoint x="-70" y="420" />
            </Array>
          </mxGeometry>
        </mxCell>
        <mxCell id="SsDaJ1J6V8dg9qfCBFVi-148" value="leader&lt;br&gt;lease" style="edgeLabel;html=1;align=center;verticalAlign=middle;resizable=0;points=[];fontSize=14;" vertex="1" connectable="0" parent="SsDaJ1J6V8dg9qfCBFVi-124">
          <mxGeometry x="0.4999" y="-40" relative="1" as="geometry">
            <mxPoint x="-17" y="22" as="offset" />
          </mxGeometry>
        </mxCell>
        <mxCell id="SsDaJ1J6V8dg9qfCBFVi-125" value="" style="endArrow=classic;startArrow=classic;html=1;fontSize=14;strokeWidth=2;curved=1;dashed=1;" edge="1" parent="1">
          <mxGeometry width="50" height="50" relative="1" as="geometry">
            <mxPoint x="339.40999999999985" y="750" as="sourcePoint" />
            <mxPoint x="339.40999999999985" y="260" as="targetPoint" />
            <Array as="points">
              <mxPoint x="-70" y="510" />
            </Array>
          </mxGeometry>
        </mxCell>
        <mxCell id="SsDaJ1J6V8dg9qfCBFVi-126" value="" style="endArrow=classic;startArrow=classic;html=1;fontSize=14;strokeWidth=2;curved=1;dashed=1;" edge="1" parent="1">
          <mxGeometry width="50" height="50" relative="1" as="geometry">
            <mxPoint x="339.40999999999985" y="840" as="sourcePoint" />
            <mxPoint x="339.40999999999985" y="350" as="targetPoint" />
            <Array as="points">
              <mxPoint x="-70" y="600" />
            </Array>
          </mxGeometry>
        </mxCell>
        <mxCell id="SsDaJ1J6V8dg9qfCBFVi-127" value="" style="endArrow=classic;html=1;fontSize=14;strokeWidth=2;" edge="1" parent="1">
          <mxGeometry width="50" height="50" relative="1" as="geometry">
            <mxPoint x="340" y="230" as="sourcePoint" />
            <mxPoint x="250" y="230" as="targetPoint" />
          </mxGeometry>
        </mxCell>
        <mxCell id="SsDaJ1J6V8dg9qfCBFVi-129" value="&lt;font style=&quot;font-size: 10px&quot;&gt;extend &lt;br style=&quot;font-size: 10px&quot;&gt;leader&lt;br style=&quot;font-size: 10px&quot;&gt;lease to&lt;/font&gt;" style="edgeLabel;html=1;align=center;verticalAlign=middle;resizable=0;points=[];fontSize=14;" vertex="1" connectable="0" parent="SsDaJ1J6V8dg9qfCBFVi-127">
          <mxGeometry x="-0.1309" relative="1" as="geometry">
            <mxPoint x="9" as="offset" />
          </mxGeometry>
        </mxCell>
        <mxCell id="SsDaJ1J6V8dg9qfCBFVi-130" value="" style="endArrow=classic;html=1;fontSize=14;strokeWidth=2;" edge="1" parent="1">
          <mxGeometry width="50" height="50" relative="1" as="geometry">
            <mxPoint x="340" y="320" as="sourcePoint" />
            <mxPoint x="250" y="320" as="targetPoint" />
          </mxGeometry>
        </mxCell>
        <mxCell id="SsDaJ1J6V8dg9qfCBFVi-131" value="&lt;font style=&quot;font-size: 10px&quot;&gt;extend &lt;br style=&quot;font-size: 10px&quot;&gt;leader&lt;br style=&quot;font-size: 10px&quot;&gt;lease to&lt;/font&gt;" style="edgeLabel;html=1;align=center;verticalAlign=middle;resizable=0;points=[];fontSize=14;" vertex="1" connectable="0" parent="SsDaJ1J6V8dg9qfCBFVi-130">
          <mxGeometry x="-0.1309" relative="1" as="geometry">
            <mxPoint x="-11" y="10" as="offset" />
          </mxGeometry>
        </mxCell>
        <mxCell id="SsDaJ1J6V8dg9qfCBFVi-136" value="" style="endArrow=classic;html=1;fontSize=14;strokeWidth=2;" edge="1" parent="1">
          <mxGeometry width="50" height="50" relative="1" as="geometry">
            <mxPoint x="340" y="409.58" as="sourcePoint" />
            <mxPoint x="250" y="409.58" as="targetPoint" />
          </mxGeometry>
        </mxCell>
        <mxCell id="SsDaJ1J6V8dg9qfCBFVi-137" value="&lt;font style=&quot;font-size: 10px&quot;&gt;extend &lt;br style=&quot;font-size: 10px&quot;&gt;leader&lt;br style=&quot;font-size: 10px&quot;&gt;lease to&lt;/font&gt;" style="edgeLabel;html=1;align=center;verticalAlign=middle;resizable=0;points=[];fontSize=14;" vertex="1" connectable="0" parent="SsDaJ1J6V8dg9qfCBFVi-136">
          <mxGeometry x="-0.1309" relative="1" as="geometry">
            <mxPoint x="-11" y="10" as="offset" />
          </mxGeometry>
        </mxCell>
        <mxCell id="SsDaJ1J6V8dg9qfCBFVi-139" value="" style="endArrow=classic;startArrow=classic;html=1;fontSize=14;strokeWidth=2;fillColor=#f8cecc;strokeColor=#FF3333;curved=1;" edge="1" parent="1">
          <mxGeometry width="50" height="50" relative="1" as="geometry">
            <mxPoint x="340" y="460" as="sourcePoint" />
            <mxPoint x="340" y="320" as="targetPoint" />
            <Array as="points">
              <mxPoint x="290" y="400" />
            </Array>
          </mxGeometry>
        </mxCell>
        <mxCell id="SsDaJ1J6V8dg9qfCBFVi-140" value="&lt;font color=&quot;#ff0000&quot; style=&quot;font-size: 10px&quot;&gt;committer&lt;br style=&quot;font-size: 10px&quot;&gt;timeout&lt;/font&gt;" style="edgeLabel;html=1;align=center;verticalAlign=middle;resizable=0;points=[];fontSize=14;" vertex="1" connectable="0" parent="SsDaJ1J6V8dg9qfCBFVi-139">
          <mxGeometry x="0.2334" y="-11" relative="1" as="geometry">
            <mxPoint x="27" y="4" as="offset" />
          </mxGeometry>
        </mxCell>
        <mxCell id="SsDaJ1J6V8dg9qfCBFVi-145" value="" style="endArrow=classic;startArrow=classic;html=1;fontSize=14;strokeWidth=2;fillColor=#f8cecc;strokeColor=#FF3333;curved=1;" edge="1" parent="1">
          <mxGeometry width="50" height="50" relative="1" as="geometry">
            <mxPoint x="338.31" y="550" as="sourcePoint" />
            <mxPoint x="338.31" y="410" as="targetPoint" />
            <Array as="points">
              <mxPoint x="288.31" y="490" />
            </Array>
          </mxGeometry>
        </mxCell>
        <mxCell id="SsDaJ1J6V8dg9qfCBFVi-146" value="&lt;font color=&quot;#ff0000&quot; style=&quot;font-size: 10px&quot;&gt;committer&lt;br style=&quot;font-size: 10px&quot;&gt;timeout&lt;/font&gt;" style="edgeLabel;html=1;align=center;verticalAlign=middle;resizable=0;points=[];fontSize=14;" vertex="1" connectable="0" parent="SsDaJ1J6V8dg9qfCBFVi-145">
          <mxGeometry x="0.2334" y="-11" relative="1" as="geometry">
            <mxPoint x="26" y="18" as="offset" />
          </mxGeometry>
        </mxCell>
        <mxCell id="SsDaJ1J6V8dg9qfCBFVi-149" value="leader&lt;br&gt;lease" style="edgeLabel;html=1;align=center;verticalAlign=middle;resizable=0;points=[];fontSize=14;" vertex="1" connectable="0" parent="1">
          <mxGeometry x="169.99552769526804" y="410.0030774666436" as="geometry" />
        </mxCell>
        <mxCell id="SsDaJ1J6V8dg9qfCBFVi-150" value="leader&lt;br&gt;lease" style="edgeLabel;html=1;align=center;verticalAlign=middle;resizable=0;points=[];fontSize=14;" vertex="1" connectable="0" parent="1">
          <mxGeometry x="209.99552769526804" y="440.0030774666436" as="geometry" />
        </mxCell>
        <mxCell id="SsDaJ1J6V8dg9qfCBFVi-153" value="" style="endArrow=classic;startArrow=classic;html=1;dashed=1;fontSize=14;strokeWidth=2;curved=1;" edge="1" parent="1">
          <mxGeometry width="50" height="50" relative="1" as="geometry">
            <mxPoint x="610" y="444" as="sourcePoint" />
            <mxPoint x="610" y="295.25" as="targetPoint" />
            <Array as="points">
              <mxPoint x="1000" y="390" />
            </Array>
          </mxGeometry>
        </mxCell>
        <mxCell id="SsDaJ1J6V8dg9qfCBFVi-161" value="committer&lt;br&gt;lease" style="edgeLabel;html=1;align=center;verticalAlign=middle;resizable=0;points=[];fontSize=14;" vertex="1" connectable="0" parent="SsDaJ1J6V8dg9qfCBFVi-153">
          <mxGeometry x="0.7389" y="4" relative="1" as="geometry">
            <mxPoint x="130" y="56" as="offset" />
          </mxGeometry>
        </mxCell>
        <mxCell id="SsDaJ1J6V8dg9qfCBFVi-154" value="" style="endArrow=classic;startArrow=classic;html=1;dashed=1;fontSize=14;strokeWidth=2;curved=1;" edge="1" parent="1">
          <mxGeometry width="50" height="50" relative="1" as="geometry">
            <mxPoint x="610" y="535.75" as="sourcePoint" />
            <mxPoint x="610" y="387" as="targetPoint" />
            <Array as="points">
              <mxPoint x="990" y="470" />
            </Array>
          </mxGeometry>
        </mxCell>
        <mxCell id="SsDaJ1J6V8dg9qfCBFVi-155" value="" style="endArrow=classic;html=1;fontSize=13;" edge="1" parent="1">
          <mxGeometry width="50" height="50" relative="1" as="geometry">
            <mxPoint x="340" y="450" as="sourcePoint" />
            <mxPoint x="610" y="480" as="targetPoint" />
          </mxGeometry>
        </mxCell>
        <mxCell id="SsDaJ1J6V8dg9qfCBFVi-156" value="" style="endArrow=classic;html=1;fontSize=14;strokeWidth=2;" edge="1" parent="1">
          <mxGeometry width="50" height="50" relative="1" as="geometry">
            <mxPoint x="616" y="388" as="sourcePoint" />
            <mxPoint x="806" y="388" as="targetPoint" />
          </mxGeometry>
        </mxCell>
        <mxCell id="SsDaJ1J6V8dg9qfCBFVi-157" value="&lt;span style=&quot;font-size: 10px&quot;&gt;start to become a committer&lt;br&gt;and extend committer lease to&lt;br&gt;&lt;/span&gt;" style="edgeLabel;html=1;align=center;verticalAlign=middle;resizable=0;points=[];fontSize=14;" vertex="1" connectable="0" parent="SsDaJ1J6V8dg9qfCBFVi-156">
          <mxGeometry x="-0.1309" relative="1" as="geometry">
            <mxPoint x="1" y="-19" as="offset" />
          </mxGeometry>
        </mxCell>
        <mxCell id="SsDaJ1J6V8dg9qfCBFVi-158" value="" style="endArrow=classic;html=1;fontSize=14;strokeWidth=2;" edge="1" parent="1">
          <mxGeometry width="50" height="50" relative="1" as="geometry">
            <mxPoint x="610" y="480" as="sourcePoint" />
            <mxPoint x="800" y="480" as="targetPoint" />
          </mxGeometry>
        </mxCell>
        <mxCell id="SsDaJ1J6V8dg9qfCBFVi-159" value="&lt;span style=&quot;font-size: 10px&quot;&gt;&amp;nbsp;extend committer lease to&lt;br&gt;&lt;/span&gt;" style="edgeLabel;html=1;align=center;verticalAlign=middle;resizable=0;points=[];fontSize=14;" vertex="1" connectable="0" parent="SsDaJ1J6V8dg9qfCBFVi-158">
          <mxGeometry x="-0.1309" relative="1" as="geometry">
            <mxPoint x="12" y="-12" as="offset" />
          </mxGeometry>
        </mxCell>
        <mxCell id="SsDaJ1J6V8dg9qfCBFVi-160" value="" style="endArrow=classic;html=1;fontSize=13;" edge="1" parent="1">
          <mxGeometry width="50" height="50" relative="1" as="geometry">
            <mxPoint x="612" y="485" as="sourcePoint" />
            <mxPoint x="430" y="500" as="targetPoint" />
          </mxGeometry>
        </mxCell>
        <mxCell id="SsDaJ1J6V8dg9qfCBFVi-162" value="committer&lt;br&gt;lease" style="edgeLabel;html=1;align=center;verticalAlign=middle;resizable=0;points=[];fontSize=14;" vertex="1" connectable="0" parent="1">
          <mxGeometry x="839.9994942902462" y="480.00483552693873" as="geometry" />
        </mxCell>
        <mxCell id="SsDaJ1J6V8dg9qfCBFVi-163" value="&lt;font style=&quot;font-size: 13px&quot;&gt;ack(RenewLeaderLease)&lt;/font&gt;" style="text;html=1;align=center;verticalAlign=middle;resizable=0;points=[];autosize=1;strokeColor=none;fontSize=14;" vertex="1" parent="1">
          <mxGeometry x="380" y="200" width="160" height="20" as="geometry" />
        </mxCell>
        <mxCell id="SsDaJ1J6V8dg9qfCBFVi-164" value="&lt;font style=&quot;font-size: 13px&quot;&gt;ack(RenewLeaderLease)&lt;/font&gt;" style="text;html=1;align=center;verticalAlign=middle;resizable=0;points=[];autosize=1;strokeColor=none;fontSize=14;" vertex="1" parent="1">
          <mxGeometry x="380" y="290" width="160" height="20" as="geometry" />
        </mxCell>
        <mxCell id="SsDaJ1J6V8dg9qfCBFVi-165" value="&lt;font style=&quot;font-size: 13px&quot;&gt;ack(RenewLeaderLease)&lt;/font&gt;" style="text;html=1;align=center;verticalAlign=middle;resizable=0;points=[];autosize=1;strokeColor=none;fontSize=14;" vertex="1" parent="1">
          <mxGeometry x="380" y="380" width="160" height="20" as="geometry" />
        </mxCell>
        <mxCell id="SsDaJ1J6V8dg9qfCBFVi-168" value="" style="endArrow=classic;startArrow=classic;html=1;fontSize=14;strokeWidth=2;strokeColor=#FF0000;curved=1;" edge="1" parent="1">
          <mxGeometry width="50" height="50" relative="1" as="geometry">
            <mxPoint x="612" y="695" as="sourcePoint" />
            <mxPoint x="612" y="205" as="targetPoint" />
            <Array as="points">
              <mxPoint x="1290" y="450" />
            </Array>
          </mxGeometry>
        </mxCell>
        <mxCell id="SsDaJ1J6V8dg9qfCBFVi-173" value="&lt;font color=&quot;#ff0000&quot;&gt;election&lt;br&gt;timeout&lt;/font&gt;" style="edgeLabel;html=1;align=center;verticalAlign=middle;resizable=0;points=[];fontSize=14;" vertex="1" connectable="0" parent="SsDaJ1J6V8dg9qfCBFVi-168">
          <mxGeometry x="0.4582" y="86" relative="1" as="geometry">
            <mxPoint as="offset" />
          </mxGeometry>
        </mxCell>
        <mxCell id="SsDaJ1J6V8dg9qfCBFVi-169" value="" style="endArrow=classic;startArrow=classic;html=1;fontSize=14;strokeWidth=2;strokeColor=#FF0000;curved=1;" edge="1" parent="1">
          <mxGeometry width="50" height="50" relative="1" as="geometry">
            <mxPoint x="609" y="787" as="sourcePoint" />
            <mxPoint x="609" y="297" as="targetPoint" />
            <Array as="points">
              <mxPoint x="1290" y="550" />
            </Array>
          </mxGeometry>
        </mxCell>
        <mxCell id="SsDaJ1J6V8dg9qfCBFVi-174" value="&lt;font color=&quot;#ff0000&quot;&gt;election&lt;br&gt;timeout&lt;/font&gt;" style="edgeLabel;html=1;align=center;verticalAlign=middle;resizable=0;points=[];fontSize=14;" vertex="1" connectable="0" parent="SsDaJ1J6V8dg9qfCBFVi-169">
          <mxGeometry x="0.4321" y="107" relative="1" as="geometry">
            <mxPoint as="offset" />
          </mxGeometry>
        </mxCell>
        <mxCell id="SsDaJ1J6V8dg9qfCBFVi-170" value="" style="endArrow=classic;startArrow=classic;html=1;fontSize=14;strokeWidth=2;strokeColor=#FF0000;curved=1;" edge="1" parent="1">
          <mxGeometry width="50" height="50" relative="1" as="geometry">
            <mxPoint x="610" y="880" as="sourcePoint" />
            <mxPoint x="610" y="389.9999999999999" as="targetPoint" />
            <Array as="points">
              <mxPoint x="1291" y="643" />
            </Array>
          </mxGeometry>
        </mxCell>
        <mxCell id="SsDaJ1J6V8dg9qfCBFVi-175" value="&lt;font color=&quot;#ff0000&quot;&gt;election&lt;br&gt;timeout&lt;/font&gt;" style="edgeLabel;html=1;align=center;verticalAlign=middle;resizable=0;points=[];fontSize=14;" vertex="1" connectable="0" parent="SsDaJ1J6V8dg9qfCBFVi-170">
          <mxGeometry x="0.4414" y="108" relative="1" as="geometry">
            <mxPoint y="1" as="offset" />
          </mxGeometry>
        </mxCell>
        <mxCell id="SsDaJ1J6V8dg9qfCBFVi-179" value="" style="endArrow=classic;html=1;fontSize=14;strokeColor=#FF0000;strokeWidth=2;curved=1;" edge="1" parent="1">
          <mxGeometry width="50" height="50" relative="1" as="geometry">
            <mxPoint x="700" y="560" as="sourcePoint" />
            <mxPoint x="610" y="480" as="targetPoint" />
            <Array as="points">
              <mxPoint x="650" y="500" />
            </Array>
          </mxGeometry>
        </mxCell>
        <mxCell id="SsDaJ1J6V8dg9qfCBFVi-180" value="&lt;font style=&quot;font-size: 30px&quot; color=&quot;#ff0000&quot;&gt;...&lt;/font&gt;" style="text;html=1;align=center;verticalAlign=middle;resizable=0;points=[];autosize=1;strokeColor=none;fontSize=14;" vertex="1" parent="1">
          <mxGeometry x="690" y="555" width="40" height="30" as="geometry" />
        </mxCell>
        <mxCell id="SsDaJ1J6V8dg9qfCBFVi-181" value="&lt;font style=&quot;font-size: 23px&quot;&gt;...&lt;/font&gt;" style="text;html=1;align=center;verticalAlign=middle;resizable=0;points=[];autosize=1;strokeColor=none;fontSize=14;" vertex="1" parent="1">
          <mxGeometry x="395" y="490" width="30" height="20" as="geometry" />
        </mxCell>
      </root>
    </mxGraphModel>
  </diagram>
</mxfile>
